<?xml version="1.0" encoding="UTF-8"?>
<svg version="1.1" xmlns="http://www.w3.org/2000/svg" width="512" height="512">
<path d="M0 0 C40.73258691 37.09857902 66.02515215 90.53183589 68.75683594 145.60009766 C71.35658136 205.24748248 50.85149524 260.57794808 10.75683594 304.60009766 C-27.93161451 345.99314124 -82.40228689 369.90666696 -138.90722656 371.81884766 C-198.08328558 373.11538802 -253.02557579 351.0823785 -295.70410156 310.33056641 C-335.85961751 271.24795203 -358.30392739 216.78829495 -359.52661133 160.9831543 C-360.0229696 109.59130336 -342.74008935 57.24886528 -308.24316406 18.60009766 C-307.81438965 18.11782715 -307.38561523 17.63555664 -306.94384766 17.13867188 C-269.12483605 -25.24169622 -217.09301456 -52.78633361 -159.84179688 -56.27099609 C-100.02301545 -59.23833136 -44.65689116 -39.83078712 0 0 Z M-50.31649208 77.42733002 C-51.17744673 78.29012825 -52.03840137 79.15292648 -52.92544556 80.04187012 C-53.40493003 80.51964574 -53.88441451 80.99742137 -54.37842882 81.48967505 C-55.99390102 83.10183664 -57.60209279 84.72107362 -59.21044922 86.34033203 C-60.36300951 87.4934561 -61.51600965 88.64614068 -62.66941833 89.79841614 C-65.80799229 92.93641427 -68.94034468 96.08055814 -72.07165575 99.22580147 C-75.34192848 102.50854328 -78.61783366 105.78565421 -81.89315796 109.06335449 C-88.09843912 115.2748617 -94.29860279 121.49145135 -100.49696577 127.70986128 C-107.55219547 134.78741508 -114.61307827 141.85931742 -121.67445302 148.9307394 C-136.20367731 163.48089114 -150.72575065 178.03816223 -165.24316406 192.60009766 C-168.06663275 191.23932124 -170.11929656 189.96803719 -172.32421875 187.73022461 C-172.89871765 187.15234695 -173.47321655 186.5744693 -174.06512451 185.9790802 C-174.67559631 185.35514877 -175.28606812 184.73121735 -175.91503906 184.08837891 C-176.55628723 183.44192917 -177.1975354 182.79547943 -177.85821533 182.12944031 C-179.90801168 180.06185739 -181.95101851 177.98773542 -183.99316406 175.91259766 C-186.02182669 173.8561352 -188.05198966 171.80121446 -190.08526611 169.74931335 C-191.34819072 168.47433207 -192.60843746 167.19669011 -193.86541748 165.91584778 C-197.5466844 162.19363089 -201.36487452 158.70963146 -205.32647705 155.28846741 C-208.16515507 152.78793494 -210.83275495 150.13532357 -213.49316406 147.44775391 C-214.03674561 146.90275742 -214.58032715 146.35776093 -215.14038086 145.79624939 C-216.84371221 144.08740549 -218.54349732 142.37508568 -220.24316406 140.66259766 C-221.41089781 139.48983757 -222.5788648 138.31730968 -223.74707031 137.14501953 C-226.58179641 134.29938077 -229.41335231 131.45062313 -232.24316406 128.60009766 C-238.79693503 133.98650689 -244.71563042 139.95894893 -250.68066406 145.97509766 C-251.7084239 147.00788361 -252.73641692 148.04043756 -253.76464844 149.07275391 C-256.26018004 151.57920052 -258.75254488 154.08876845 -261.24316406 156.60009766 C-259.80667527 159.88208032 -258.03974391 162.05091994 -255.50997925 164.5737915 C-254.73312775 165.35339233 -253.95627625 166.13299316 -253.15588379 166.93621826 C-252.3028064 167.7821051 -251.449729 168.62799194 -250.57080078 169.49951172 C-249.67318024 170.39742432 -248.77555969 171.29533691 -247.85073853 172.22045898 C-245.39258359 174.67918744 -242.92831362 177.13170315 -240.46289968 179.58314991 C-237.88616998 182.1473722 -235.31510762 184.7172641 -232.74343872 187.28656006 C-227.87426657 192.14951749 -223.00001888 197.00735442 -218.12392724 201.86337256 C-212.57227877 207.39266183 -207.02631218 212.92763513 -201.48081565 218.46309328 C-190.07457558 229.84843151 -178.6612211 241.22661013 -167.24316406 252.60009766 C-162.63272374 248.7434239 -158.24838717 244.74877332 -154.01051331 240.48770142 C-153.13174519 239.61021494 -153.13174519 239.61021494 -152.23522419 238.71500146 C-150.29221469 236.77362606 -148.35277754 234.82872246 -146.41333008 232.88378906 C-145.01351551 231.48369215 -143.61348016 230.08381593 -142.21324158 228.68414307 C-138.42641085 224.89759846 -134.64266459 221.10798533 -130.85947537 217.31780291 C-126.90013156 213.3521948 -122.93794315 209.38943091 -118.97605896 205.42636108 C-111.48026552 197.92746339 -103.9870242 190.4260209 -96.49470228 182.92365491 C-87.96221962 174.37998297 -79.42688684 165.83916079 -70.89131653 157.29857373 C-53.33876502 139.73557834 -35.78978576 122.16901719 -18.24316406 104.60009766 C-19.18661358 103.49125351 -20.13124205 102.38341241 -21.07635498 101.27598572 C-21.60226604 100.65894744 -22.12817711 100.04190916 -22.67002487 99.40617275 C-26.24035279 95.30718368 -30.14296048 91.51436985 -33.98535156 87.67260742 C-35.50908919 86.14664932 -37.02460836 84.61281621 -38.54003906 83.07861328 C-39.50830076 82.10742309 -40.47703335 81.13670207 -41.44628906 80.16650391 C-42.31930664 79.28937744 -43.19232422 78.41225098 -44.09179688 77.50854492 C-46.95237662 74.97096527 -47.44653827 74.89802812 -50.31649208 77.42733002 Z " fill="#7BB341" transform="translate(401.2431640625,98.39990234375)"/>
</svg>
